<svg xmlns="http://www.w3.org/2000/svg" viewBox="0 0 308 277.82">
  <path fill="#000" d="M154.15 193.64a42 42 0 00-26.26 9.25c-3.11 2.5-5.93 6.24-8.23 8.67a34.35 34.35 0 01-13.92 8.14c-7 2.23-13.43 1.26-20.07-1.78-9.07-4.16-13.59-13.16-22-18.27a42.29 42.29 0 00-49.53 4.61A42.08 42.08 0 0042 277.82a42.28 42.28 0 0026.22-9.23c3.57-2.86 5.88-6.72 9.21-9.72a35.73 35.73 0 0114.1-7.51c7.22-2.09 14.42-.32 20.95 3.22 8.24 4.47 12.49 13 20.84 17.73a42.08 42.08 0 1020.82-78.67M117.6 20.66a42.08 42.08 0 00-4.46 30.76c1.22 5.08 3.31 8.64 3.66 13.78.32 4.6.06 11.36-2.32 15.46-3.93 6.76-9.17 12-16.59 15.08C93.64 97.49 89 97.53 84.6 99a42.1 42.1 0 1055.27 36.31c-.48-5.66-3-10.35-4.17-15.75-1.81-8.64.15-16.82 4.43-24.26 1.94-3.34 6.59-6.4 9.83-8.32 4.46-2.65 8.25-3.1 13.07-4.15a42 42 0 0026.88-63.13c-16.34-26.7-56.72-26.15-72.31.96M173.47 159.68a42 42 0 0021.15 18.11c3.73 1.44 8.33 2 11.64 2.8A33.79 33.79 0 01219.6 188c5.77 5.05 8.42 11.11 9.15 18.77.56 5.87-.86 10.43-2.66 15.87a42.07 42.07 0 1047.85-28.18c-8.49-1.63-17.81-5.35-22.45-13.34s-5.93-18.16-2.39-26.94a41.93 41.93 0 00.13-30.6 42.51 42.51 0 00-41.44-27C177 98.15 158 133 173.47 159.68" />
</svg>